<mxfile host="app.diagrams.net" modified="2023-11-06T05:42:01.772Z" agent="Mozilla/5.0 (Macintosh; Intel Mac OS X 10_15_7) AppleWebKit/537.36 (KHTML, like Gecko) Chrome/118.0.0.0 Safari/537.36" version="21.6.9" etag="mcjhAROGPg0kur1T5Vln" type="github">
  <diagram name="第 1 页" id="xv_8_rkUy1ZQQ19TQxu1">
    <mxGraphModel>
      <root>
        <mxCell id="0" />
        <mxCell id="1" parent="0" />
      </root>
    </mxGraphModel>
  </diagram>
</mxfile>
